<mxfile host="app.diagrams.net" modified="2023-03-22T06:45:28.407Z" agent="5.0 (X11; Linux x86_64) AppleWebKit/537.36 (KHTML, like Gecko) Chrome/111.0.0.0 Safari/537.36" etag="yhI3hmihomvek57ULRH2" version="21.0.10" type="github">
  <diagram name="Page-1" id="Re-WZFJ69WUl8fqWae40">
    <mxGraphModel dx="2284" dy="1902" grid="1" gridSize="10" guides="1" tooltips="1" connect="1" arrows="1" fold="1" page="1" pageScale="1" pageWidth="850" pageHeight="1100" math="0" shadow="0">
      <root>
        <mxCell id="0" />
        <mxCell id="1" parent="0" />
        <mxCell id="-qCF9lznnPfWgLUcTn7B-25" value="Customer Use cases" style="swimlane;whiteSpace=wrap;html=1;" vertex="1" parent="1">
          <mxGeometry x="-190" y="-150" width="950" height="840" as="geometry" />
        </mxCell>
        <mxCell id="-qCF9lznnPfWgLUcTn7B-26" value="" style="group" vertex="1" connectable="0" parent="-qCF9lznnPfWgLUcTn7B-25">
          <mxGeometry x="80" y="60" width="750" height="730" as="geometry" />
        </mxCell>
        <mxCell id="-qCF9lznnPfWgLUcTn7B-1" value="" style="rounded=0;whiteSpace=wrap;html=1;" vertex="1" parent="-qCF9lznnPfWgLUcTn7B-26">
          <mxGeometry x="120" width="630" height="730" as="geometry" />
        </mxCell>
        <mxCell id="-qCF9lznnPfWgLUcTn7B-2" value="Rider" style="shape=umlActor;verticalLabelPosition=bottom;verticalAlign=top;html=1;outlineConnect=0;" vertex="1" parent="-qCF9lznnPfWgLUcTn7B-26">
          <mxGeometry y="190" width="30" height="60" as="geometry" />
        </mxCell>
        <mxCell id="-qCF9lznnPfWgLUcTn7B-3" value="register" style="ellipse;whiteSpace=wrap;html=1;" vertex="1" parent="-qCF9lznnPfWgLUcTn7B-26">
          <mxGeometry x="150" y="60" width="120" height="80" as="geometry" />
        </mxCell>
        <mxCell id="-qCF9lznnPfWgLUcTn7B-4" value="login" style="ellipse;whiteSpace=wrap;html=1;" vertex="1" parent="-qCF9lznnPfWgLUcTn7B-26">
          <mxGeometry x="150" y="200" width="120" height="80" as="geometry" />
        </mxCell>
        <mxCell id="-qCF9lznnPfWgLUcTn7B-5" value="verify user identity&lt;br&gt;with phonenumber" style="ellipse;whiteSpace=wrap;html=1;" vertex="1" parent="-qCF9lznnPfWgLUcTn7B-26">
          <mxGeometry x="360" y="120" width="140" height="100" as="geometry" />
        </mxCell>
        <mxCell id="-qCF9lznnPfWgLUcTn7B-11" style="edgeStyle=orthogonalEdgeStyle;rounded=0;orthogonalLoop=1;jettySize=auto;html=1;exitX=1;exitY=0.5;exitDx=0;exitDy=0;dashed=1;" edge="1" parent="-qCF9lznnPfWgLUcTn7B-26" source="-qCF9lznnPfWgLUcTn7B-3" target="-qCF9lznnPfWgLUcTn7B-5">
          <mxGeometry relative="1" as="geometry" />
        </mxCell>
        <mxCell id="-qCF9lznnPfWgLUcTn7B-12" value="&amp;lt;&amp;lt;include&amp;gt;&amp;gt;" style="edgeLabel;html=1;align=center;verticalAlign=middle;resizable=0;points=[];" vertex="1" connectable="0" parent="-qCF9lznnPfWgLUcTn7B-11">
          <mxGeometry x="-0.3818" y="1" relative="1" as="geometry">
            <mxPoint y="36" as="offset" />
          </mxGeometry>
        </mxCell>
        <mxCell id="-qCF9lznnPfWgLUcTn7B-14" value="&amp;lt;&amp;lt;include&amp;gt;&amp;gt;" style="edgeLabel;html=1;align=center;verticalAlign=middle;resizable=0;points=[];" vertex="1" connectable="0" parent="-qCF9lznnPfWgLUcTn7B-11">
          <mxGeometry x="-0.3818" y="1" relative="1" as="geometry">
            <mxPoint x="4" y="106" as="offset" />
          </mxGeometry>
        </mxCell>
        <mxCell id="-qCF9lznnPfWgLUcTn7B-13" style="edgeStyle=orthogonalEdgeStyle;rounded=0;orthogonalLoop=1;jettySize=auto;html=1;exitX=1;exitY=0.5;exitDx=0;exitDy=0;dashed=1;" edge="1" parent="-qCF9lznnPfWgLUcTn7B-26" source="-qCF9lznnPfWgLUcTn7B-4" target="-qCF9lznnPfWgLUcTn7B-5">
          <mxGeometry relative="1" as="geometry" />
        </mxCell>
        <mxCell id="-qCF9lznnPfWgLUcTn7B-15" value="authenticated" style="ellipse;whiteSpace=wrap;html=1;" vertex="1" parent="-qCF9lznnPfWgLUcTn7B-26">
          <mxGeometry x="460" y="400" width="140" height="100" as="geometry" />
        </mxCell>
        <mxCell id="-qCF9lznnPfWgLUcTn7B-19" style="edgeStyle=orthogonalEdgeStyle;rounded=0;orthogonalLoop=1;jettySize=auto;html=1;dashed=1;" edge="1" parent="-qCF9lznnPfWgLUcTn7B-26" source="-qCF9lznnPfWgLUcTn7B-16" target="-qCF9lznnPfWgLUcTn7B-15">
          <mxGeometry relative="1" as="geometry" />
        </mxCell>
        <mxCell id="-qCF9lznnPfWgLUcTn7B-22" value="&amp;lt;&amp;lt;include&amp;gt;&amp;gt;" style="edgeLabel;html=1;align=center;verticalAlign=middle;resizable=0;points=[];" vertex="1" connectable="0" parent="-qCF9lznnPfWgLUcTn7B-19">
          <mxGeometry x="-0.4846" y="-1" relative="1" as="geometry">
            <mxPoint as="offset" />
          </mxGeometry>
        </mxCell>
        <mxCell id="-qCF9lznnPfWgLUcTn7B-23" value="&amp;lt;&amp;lt;include&amp;gt;&amp;gt;" style="edgeLabel;html=1;align=center;verticalAlign=middle;resizable=0;points=[];" vertex="1" connectable="0" parent="-qCF9lznnPfWgLUcTn7B-19">
          <mxGeometry x="-0.4846" y="-1" relative="1" as="geometry">
            <mxPoint x="-7" y="139" as="offset" />
          </mxGeometry>
        </mxCell>
        <mxCell id="-qCF9lznnPfWgLUcTn7B-24" value="&amp;lt;&amp;lt;include&amp;gt;&amp;gt;" style="edgeLabel;html=1;align=center;verticalAlign=middle;resizable=0;points=[];" vertex="1" connectable="0" parent="-qCF9lznnPfWgLUcTn7B-19">
          <mxGeometry x="-0.4846" y="-1" relative="1" as="geometry">
            <mxPoint x="53" y="279" as="offset" />
          </mxGeometry>
        </mxCell>
        <mxCell id="-qCF9lznnPfWgLUcTn7B-16" value="Search for Trip" style="ellipse;whiteSpace=wrap;html=1;" vertex="1" parent="-qCF9lznnPfWgLUcTn7B-26">
          <mxGeometry x="160" y="330" width="120" height="80" as="geometry" />
        </mxCell>
        <mxCell id="-qCF9lznnPfWgLUcTn7B-20" style="edgeStyle=orthogonalEdgeStyle;rounded=0;orthogonalLoop=1;jettySize=auto;html=1;entryX=0;entryY=0.5;entryDx=0;entryDy=0;dashed=1;" edge="1" parent="-qCF9lznnPfWgLUcTn7B-26" source="-qCF9lznnPfWgLUcTn7B-17" target="-qCF9lznnPfWgLUcTn7B-15">
          <mxGeometry relative="1" as="geometry" />
        </mxCell>
        <mxCell id="-qCF9lznnPfWgLUcTn7B-17" value="Select a trip" style="ellipse;whiteSpace=wrap;html=1;" vertex="1" parent="-qCF9lznnPfWgLUcTn7B-26">
          <mxGeometry x="160" y="470" width="120" height="80" as="geometry" />
        </mxCell>
        <mxCell id="-qCF9lznnPfWgLUcTn7B-21" style="edgeStyle=orthogonalEdgeStyle;rounded=0;orthogonalLoop=1;jettySize=auto;html=1;exitX=1;exitY=0.5;exitDx=0;exitDy=0;dashed=1;" edge="1" parent="-qCF9lznnPfWgLUcTn7B-26" source="-qCF9lznnPfWgLUcTn7B-18">
          <mxGeometry relative="1" as="geometry">
            <mxPoint x="460" y="450" as="targetPoint" />
          </mxGeometry>
        </mxCell>
        <mxCell id="-qCF9lznnPfWgLUcTn7B-18" value="give feedback&lt;br&gt;and(or)&lt;br&gt;Signal a driver" style="ellipse;whiteSpace=wrap;html=1;" vertex="1" parent="-qCF9lznnPfWgLUcTn7B-26">
          <mxGeometry x="170" y="610" width="120" height="80" as="geometry" />
        </mxCell>
        <mxCell id="-qCF9lznnPfWgLUcTn7B-27" value="Driver Use cases" style="swimlane;whiteSpace=wrap;html=1;" vertex="1" parent="1">
          <mxGeometry x="840" y="-150" width="950" height="840" as="geometry" />
        </mxCell>
        <mxCell id="-qCF9lznnPfWgLUcTn7B-28" value="" style="group" vertex="1" connectable="0" parent="-qCF9lznnPfWgLUcTn7B-27">
          <mxGeometry x="80" y="60" width="750" height="730" as="geometry" />
        </mxCell>
        <mxCell id="-qCF9lznnPfWgLUcTn7B-29" value="" style="rounded=0;whiteSpace=wrap;html=1;" vertex="1" parent="-qCF9lznnPfWgLUcTn7B-28">
          <mxGeometry x="120" width="630" height="730" as="geometry" />
        </mxCell>
        <mxCell id="-qCF9lznnPfWgLUcTn7B-30" value="Driver" style="shape=umlActor;verticalLabelPosition=bottom;verticalAlign=top;html=1;outlineConnect=0;" vertex="1" parent="-qCF9lznnPfWgLUcTn7B-28">
          <mxGeometry y="190" width="30" height="60" as="geometry" />
        </mxCell>
        <mxCell id="-qCF9lznnPfWgLUcTn7B-31" value="register" style="ellipse;whiteSpace=wrap;html=1;" vertex="1" parent="-qCF9lznnPfWgLUcTn7B-28">
          <mxGeometry x="150" y="60" width="120" height="80" as="geometry" />
        </mxCell>
        <mxCell id="-qCF9lznnPfWgLUcTn7B-32" value="login" style="ellipse;whiteSpace=wrap;html=1;" vertex="1" parent="-qCF9lznnPfWgLUcTn7B-28">
          <mxGeometry x="150" y="200" width="120" height="80" as="geometry" />
        </mxCell>
        <mxCell id="-qCF9lznnPfWgLUcTn7B-33" value="verify user identity&lt;br&gt;with phonenumber" style="ellipse;whiteSpace=wrap;html=1;" vertex="1" parent="-qCF9lznnPfWgLUcTn7B-28">
          <mxGeometry x="360" y="120" width="140" height="100" as="geometry" />
        </mxCell>
        <mxCell id="-qCF9lznnPfWgLUcTn7B-34" style="edgeStyle=orthogonalEdgeStyle;rounded=0;orthogonalLoop=1;jettySize=auto;html=1;exitX=1;exitY=0.5;exitDx=0;exitDy=0;dashed=1;" edge="1" parent="-qCF9lznnPfWgLUcTn7B-28" source="-qCF9lznnPfWgLUcTn7B-31" target="-qCF9lznnPfWgLUcTn7B-33">
          <mxGeometry relative="1" as="geometry" />
        </mxCell>
        <mxCell id="-qCF9lznnPfWgLUcTn7B-35" value="&amp;lt;&amp;lt;include&amp;gt;&amp;gt;" style="edgeLabel;html=1;align=center;verticalAlign=middle;resizable=0;points=[];" vertex="1" connectable="0" parent="-qCF9lznnPfWgLUcTn7B-34">
          <mxGeometry x="-0.3818" y="1" relative="1" as="geometry">
            <mxPoint y="36" as="offset" />
          </mxGeometry>
        </mxCell>
        <mxCell id="-qCF9lznnPfWgLUcTn7B-36" value="&amp;lt;&amp;lt;include&amp;gt;&amp;gt;" style="edgeLabel;html=1;align=center;verticalAlign=middle;resizable=0;points=[];" vertex="1" connectable="0" parent="-qCF9lznnPfWgLUcTn7B-34">
          <mxGeometry x="-0.3818" y="1" relative="1" as="geometry">
            <mxPoint x="4" y="106" as="offset" />
          </mxGeometry>
        </mxCell>
        <mxCell id="-qCF9lznnPfWgLUcTn7B-37" style="edgeStyle=orthogonalEdgeStyle;rounded=0;orthogonalLoop=1;jettySize=auto;html=1;exitX=1;exitY=0.5;exitDx=0;exitDy=0;dashed=1;" edge="1" parent="-qCF9lznnPfWgLUcTn7B-28" source="-qCF9lznnPfWgLUcTn7B-32" target="-qCF9lznnPfWgLUcTn7B-33">
          <mxGeometry relative="1" as="geometry" />
        </mxCell>
        <mxCell id="-qCF9lznnPfWgLUcTn7B-38" value="authenticated" style="ellipse;whiteSpace=wrap;html=1;" vertex="1" parent="-qCF9lznnPfWgLUcTn7B-28">
          <mxGeometry x="460" y="400" width="140" height="100" as="geometry" />
        </mxCell>
        <mxCell id="-qCF9lznnPfWgLUcTn7B-39" style="edgeStyle=orthogonalEdgeStyle;rounded=0;orthogonalLoop=1;jettySize=auto;html=1;dashed=1;" edge="1" parent="-qCF9lznnPfWgLUcTn7B-28" source="-qCF9lznnPfWgLUcTn7B-43" target="-qCF9lznnPfWgLUcTn7B-38">
          <mxGeometry relative="1" as="geometry" />
        </mxCell>
        <mxCell id="-qCF9lznnPfWgLUcTn7B-40" value="&amp;lt;&amp;lt;include&amp;gt;&amp;gt;" style="edgeLabel;html=1;align=center;verticalAlign=middle;resizable=0;points=[];" vertex="1" connectable="0" parent="-qCF9lznnPfWgLUcTn7B-39">
          <mxGeometry x="-0.4846" y="-1" relative="1" as="geometry">
            <mxPoint as="offset" />
          </mxGeometry>
        </mxCell>
        <mxCell id="-qCF9lznnPfWgLUcTn7B-43" value="Go Online" style="ellipse;whiteSpace=wrap;html=1;" vertex="1" parent="-qCF9lznnPfWgLUcTn7B-28">
          <mxGeometry x="160" y="330" width="120" height="80" as="geometry" />
        </mxCell>
        <mxCell id="-qCF9lznnPfWgLUcTn7B-48" value="Admin Use cases" style="swimlane;whiteSpace=wrap;html=1;" vertex="1" parent="1">
          <mxGeometry x="1840" y="-150" width="950" height="840" as="geometry" />
        </mxCell>
        <mxCell id="-qCF9lznnPfWgLUcTn7B-49" value="" style="group" vertex="1" connectable="0" parent="-qCF9lznnPfWgLUcTn7B-48">
          <mxGeometry x="80" y="60" width="750" height="730" as="geometry" />
        </mxCell>
        <mxCell id="-qCF9lznnPfWgLUcTn7B-50" value="" style="rounded=0;whiteSpace=wrap;html=1;" vertex="1" parent="-qCF9lznnPfWgLUcTn7B-49">
          <mxGeometry x="120" width="630" height="730" as="geometry" />
        </mxCell>
        <mxCell id="-qCF9lznnPfWgLUcTn7B-51" value="Actor" style="shape=umlActor;verticalLabelPosition=bottom;verticalAlign=top;html=1;outlineConnect=0;" vertex="1" parent="-qCF9lznnPfWgLUcTn7B-49">
          <mxGeometry y="190" width="30" height="60" as="geometry" />
        </mxCell>
        <mxCell id="-qCF9lznnPfWgLUcTn7B-52" value="register" style="ellipse;whiteSpace=wrap;html=1;" vertex="1" parent="-qCF9lznnPfWgLUcTn7B-49">
          <mxGeometry x="150" y="60" width="120" height="80" as="geometry" />
        </mxCell>
        <mxCell id="-qCF9lznnPfWgLUcTn7B-53" value="login" style="ellipse;whiteSpace=wrap;html=1;" vertex="1" parent="-qCF9lznnPfWgLUcTn7B-49">
          <mxGeometry x="150" y="200" width="120" height="80" as="geometry" />
        </mxCell>
        <mxCell id="-qCF9lznnPfWgLUcTn7B-54" value="verify user identity&lt;br&gt;with phonenumber" style="ellipse;whiteSpace=wrap;html=1;" vertex="1" parent="-qCF9lznnPfWgLUcTn7B-49">
          <mxGeometry x="360" y="120" width="140" height="100" as="geometry" />
        </mxCell>
        <mxCell id="-qCF9lznnPfWgLUcTn7B-55" style="edgeStyle=orthogonalEdgeStyle;rounded=0;orthogonalLoop=1;jettySize=auto;html=1;exitX=1;exitY=0.5;exitDx=0;exitDy=0;dashed=1;" edge="1" parent="-qCF9lznnPfWgLUcTn7B-49" source="-qCF9lznnPfWgLUcTn7B-52" target="-qCF9lznnPfWgLUcTn7B-54">
          <mxGeometry relative="1" as="geometry" />
        </mxCell>
        <mxCell id="-qCF9lznnPfWgLUcTn7B-56" value="&amp;lt;&amp;lt;include&amp;gt;&amp;gt;" style="edgeLabel;html=1;align=center;verticalAlign=middle;resizable=0;points=[];" vertex="1" connectable="0" parent="-qCF9lznnPfWgLUcTn7B-55">
          <mxGeometry x="-0.3818" y="1" relative="1" as="geometry">
            <mxPoint y="36" as="offset" />
          </mxGeometry>
        </mxCell>
        <mxCell id="-qCF9lznnPfWgLUcTn7B-57" value="&amp;lt;&amp;lt;include&amp;gt;&amp;gt;" style="edgeLabel;html=1;align=center;verticalAlign=middle;resizable=0;points=[];" vertex="1" connectable="0" parent="-qCF9lznnPfWgLUcTn7B-55">
          <mxGeometry x="-0.3818" y="1" relative="1" as="geometry">
            <mxPoint x="4" y="106" as="offset" />
          </mxGeometry>
        </mxCell>
        <mxCell id="-qCF9lznnPfWgLUcTn7B-58" style="edgeStyle=orthogonalEdgeStyle;rounded=0;orthogonalLoop=1;jettySize=auto;html=1;exitX=1;exitY=0.5;exitDx=0;exitDy=0;dashed=1;" edge="1" parent="-qCF9lznnPfWgLUcTn7B-49" source="-qCF9lznnPfWgLUcTn7B-53" target="-qCF9lznnPfWgLUcTn7B-54">
          <mxGeometry relative="1" as="geometry" />
        </mxCell>
        <mxCell id="-qCF9lznnPfWgLUcTn7B-59" value="authenticated" style="ellipse;whiteSpace=wrap;html=1;" vertex="1" parent="-qCF9lznnPfWgLUcTn7B-49">
          <mxGeometry x="460" y="400" width="140" height="100" as="geometry" />
        </mxCell>
        <mxCell id="-qCF9lznnPfWgLUcTn7B-60" style="edgeStyle=orthogonalEdgeStyle;rounded=0;orthogonalLoop=1;jettySize=auto;html=1;dashed=1;" edge="1" parent="-qCF9lznnPfWgLUcTn7B-49" source="-qCF9lznnPfWgLUcTn7B-64" target="-qCF9lznnPfWgLUcTn7B-59">
          <mxGeometry relative="1" as="geometry" />
        </mxCell>
        <mxCell id="-qCF9lznnPfWgLUcTn7B-61" value="&amp;lt;&amp;lt;include&amp;gt;&amp;gt;" style="edgeLabel;html=1;align=center;verticalAlign=middle;resizable=0;points=[];" vertex="1" connectable="0" parent="-qCF9lznnPfWgLUcTn7B-60">
          <mxGeometry x="-0.4846" y="-1" relative="1" as="geometry">
            <mxPoint as="offset" />
          </mxGeometry>
        </mxCell>
        <mxCell id="-qCF9lznnPfWgLUcTn7B-62" value="&amp;lt;&amp;lt;include&amp;gt;&amp;gt;" style="edgeLabel;html=1;align=center;verticalAlign=middle;resizable=0;points=[];" vertex="1" connectable="0" parent="-qCF9lznnPfWgLUcTn7B-60">
          <mxGeometry x="-0.4846" y="-1" relative="1" as="geometry">
            <mxPoint x="-7" y="139" as="offset" />
          </mxGeometry>
        </mxCell>
        <mxCell id="-qCF9lznnPfWgLUcTn7B-63" value="&amp;lt;&amp;lt;include&amp;gt;&amp;gt;" style="edgeLabel;html=1;align=center;verticalAlign=middle;resizable=0;points=[];" vertex="1" connectable="0" parent="-qCF9lznnPfWgLUcTn7B-60">
          <mxGeometry x="-0.4846" y="-1" relative="1" as="geometry">
            <mxPoint x="53" y="279" as="offset" />
          </mxGeometry>
        </mxCell>
        <mxCell id="-qCF9lznnPfWgLUcTn7B-64" value="Search for Trip" style="ellipse;whiteSpace=wrap;html=1;" vertex="1" parent="-qCF9lznnPfWgLUcTn7B-49">
          <mxGeometry x="160" y="330" width="120" height="80" as="geometry" />
        </mxCell>
        <mxCell id="-qCF9lznnPfWgLUcTn7B-65" style="edgeStyle=orthogonalEdgeStyle;rounded=0;orthogonalLoop=1;jettySize=auto;html=1;entryX=0;entryY=0.5;entryDx=0;entryDy=0;dashed=1;" edge="1" parent="-qCF9lznnPfWgLUcTn7B-49" source="-qCF9lznnPfWgLUcTn7B-66" target="-qCF9lznnPfWgLUcTn7B-59">
          <mxGeometry relative="1" as="geometry" />
        </mxCell>
        <mxCell id="-qCF9lznnPfWgLUcTn7B-66" value="Select a trip" style="ellipse;whiteSpace=wrap;html=1;" vertex="1" parent="-qCF9lznnPfWgLUcTn7B-49">
          <mxGeometry x="160" y="470" width="120" height="80" as="geometry" />
        </mxCell>
        <mxCell id="-qCF9lznnPfWgLUcTn7B-67" style="edgeStyle=orthogonalEdgeStyle;rounded=0;orthogonalLoop=1;jettySize=auto;html=1;exitX=1;exitY=0.5;exitDx=0;exitDy=0;dashed=1;" edge="1" parent="-qCF9lznnPfWgLUcTn7B-49" source="-qCF9lznnPfWgLUcTn7B-68">
          <mxGeometry relative="1" as="geometry">
            <mxPoint x="460" y="450" as="targetPoint" />
          </mxGeometry>
        </mxCell>
        <mxCell id="-qCF9lznnPfWgLUcTn7B-68" value="give feedback&lt;br&gt;and(or)&lt;br&gt;Signal a driver" style="ellipse;whiteSpace=wrap;html=1;" vertex="1" parent="-qCF9lznnPfWgLUcTn7B-49">
          <mxGeometry x="170" y="610" width="120" height="80" as="geometry" />
        </mxCell>
        <mxCell id="-qCF9lznnPfWgLUcTn7B-82" value="Identity Provider" style="rounded=0;whiteSpace=wrap;html=1;fillColor=#dae8fc;strokeColor=#6c8ebf;" vertex="1" parent="1">
          <mxGeometry x="-440" y="760" width="1440" height="60" as="geometry" />
        </mxCell>
        <mxCell id="-qCF9lznnPfWgLUcTn7B-85" value="Clients" style="swimlane;whiteSpace=wrap;html=1;fillColor=#d5e8d4;strokeColor=#82b366;" vertex="1" parent="1">
          <mxGeometry x="-440" y="880" width="200" height="360" as="geometry" />
        </mxCell>
        <mxCell id="-qCF9lznnPfWgLUcTn7B-86" value="Mobile" style="rounded=0;whiteSpace=wrap;html=1;" vertex="1" parent="-qCF9lznnPfWgLUcTn7B-85">
          <mxGeometry x="15" y="50" width="165" height="60" as="geometry" />
        </mxCell>
        <mxCell id="-qCF9lznnPfWgLUcTn7B-87" value="Web" style="rounded=0;whiteSpace=wrap;html=1;" vertex="1" parent="-qCF9lznnPfWgLUcTn7B-85">
          <mxGeometry x="15" y="140" width="165" height="60" as="geometry" />
        </mxCell>
        <mxCell id="-qCF9lznnPfWgLUcTn7B-88" value="Application Backend" style="swimlane;horizontal=0;whiteSpace=wrap;html=1;fillColor=#f8cecc;strokeColor=#b85450;" vertex="1" parent="1">
          <mxGeometry x="-160" y="840" width="1160" height="440" as="geometry" />
        </mxCell>
        <mxCell id="-qCF9lznnPfWgLUcTn7B-89" style="edgeStyle=orthogonalEdgeStyle;rounded=0;orthogonalLoop=1;jettySize=auto;html=1;exitX=1;exitY=0.5;exitDx=0;exitDy=0;" edge="1" parent="-qCF9lznnPfWgLUcTn7B-88" source="-qCF9lznnPfWgLUcTn7B-70" target="-qCF9lznnPfWgLUcTn7B-72">
          <mxGeometry relative="1" as="geometry" />
        </mxCell>
        <mxCell id="-qCF9lznnPfWgLUcTn7B-90" style="edgeStyle=orthogonalEdgeStyle;rounded=0;orthogonalLoop=1;jettySize=auto;html=1;entryX=0.005;entryY=0.4;entryDx=0;entryDy=0;entryPerimeter=0;" edge="1" parent="-qCF9lznnPfWgLUcTn7B-88" source="-qCF9lznnPfWgLUcTn7B-70" target="-qCF9lznnPfWgLUcTn7B-73">
          <mxGeometry relative="1" as="geometry" />
        </mxCell>
        <mxCell id="-qCF9lznnPfWgLUcTn7B-91" style="edgeStyle=orthogonalEdgeStyle;rounded=0;orthogonalLoop=1;jettySize=auto;html=1;entryX=0;entryY=0.5;entryDx=0;entryDy=0;" edge="1" parent="-qCF9lznnPfWgLUcTn7B-88" source="-qCF9lznnPfWgLUcTn7B-70" target="-qCF9lznnPfWgLUcTn7B-80">
          <mxGeometry relative="1" as="geometry" />
        </mxCell>
        <mxCell id="-qCF9lznnPfWgLUcTn7B-70" value="API Gateway" style="rounded=0;whiteSpace=wrap;html=1;" vertex="1" parent="-qCF9lznnPfWgLUcTn7B-88">
          <mxGeometry x="40" y="30" width="120" height="350" as="geometry" />
        </mxCell>
        <mxCell id="-qCF9lznnPfWgLUcTn7B-81" value="" style="group" vertex="1" connectable="0" parent="-qCF9lznnPfWgLUcTn7B-88">
          <mxGeometry x="350" y="60" width="660" height="300" as="geometry" />
        </mxCell>
        <mxCell id="-qCF9lznnPfWgLUcTn7B-72" value="Customer Service" style="rounded=0;whiteSpace=wrap;html=1;" vertex="1" parent="-qCF9lznnPfWgLUcTn7B-81">
          <mxGeometry width="200" height="60" as="geometry" />
        </mxCell>
        <mxCell id="-qCF9lznnPfWgLUcTn7B-97" style="edgeStyle=orthogonalEdgeStyle;rounded=0;orthogonalLoop=1;jettySize=auto;html=1;entryX=0;entryY=0.5;entryDx=0;entryDy=0;" edge="1" parent="-qCF9lznnPfWgLUcTn7B-81" source="-qCF9lznnPfWgLUcTn7B-73" target="-qCF9lznnPfWgLUcTn7B-76">
          <mxGeometry relative="1" as="geometry" />
        </mxCell>
        <mxCell id="-qCF9lznnPfWgLUcTn7B-99" style="edgeStyle=orthogonalEdgeStyle;rounded=0;orthogonalLoop=1;jettySize=auto;html=1;" edge="1" parent="-qCF9lznnPfWgLUcTn7B-81" source="-qCF9lznnPfWgLUcTn7B-73">
          <mxGeometry relative="1" as="geometry">
            <mxPoint x="410" y="280" as="targetPoint" />
            <Array as="points">
              <mxPoint x="270" y="150" />
              <mxPoint x="270" y="280" />
            </Array>
          </mxGeometry>
        </mxCell>
        <mxCell id="-qCF9lznnPfWgLUcTn7B-73" value="Driver Service" style="rounded=0;whiteSpace=wrap;html=1;" vertex="1" parent="-qCF9lznnPfWgLUcTn7B-81">
          <mxGeometry y="120" width="200" height="60" as="geometry" />
        </mxCell>
        <mxCell id="-qCF9lznnPfWgLUcTn7B-80" value="Administration Service" style="rounded=0;whiteSpace=wrap;html=1;" vertex="1" parent="-qCF9lznnPfWgLUcTn7B-81">
          <mxGeometry y="240" width="200" height="60" as="geometry" />
        </mxCell>
        <mxCell id="-qCF9lznnPfWgLUcTn7B-75" value="Potential Outsourcing" style="swimlane;whiteSpace=wrap;html=1;fillColor=#ffe6cc;strokeColor=#d79b00;" vertex="1" parent="-qCF9lznnPfWgLUcTn7B-81">
          <mxGeometry x="410" width="250" height="210" as="geometry" />
        </mxCell>
        <mxCell id="-qCF9lznnPfWgLUcTn7B-74" value="Payment Service" style="rounded=0;whiteSpace=wrap;html=1;" vertex="1" parent="-qCF9lznnPfWgLUcTn7B-75">
          <mxGeometry x="20" y="50" width="200" height="60" as="geometry" />
        </mxCell>
        <mxCell id="-qCF9lznnPfWgLUcTn7B-76" value="Legitimization Service" style="rounded=0;whiteSpace=wrap;html=1;" vertex="1" parent="-qCF9lznnPfWgLUcTn7B-75">
          <mxGeometry x="25" y="120" width="200" height="60" as="geometry" />
        </mxCell>
        <mxCell id="-qCF9lznnPfWgLUcTn7B-95" style="edgeStyle=orthogonalEdgeStyle;rounded=0;orthogonalLoop=1;jettySize=auto;html=1;entryX=0;entryY=0.5;entryDx=0;entryDy=0;" edge="1" parent="-qCF9lznnPfWgLUcTn7B-81" source="-qCF9lznnPfWgLUcTn7B-72" target="-qCF9lznnPfWgLUcTn7B-74">
          <mxGeometry relative="1" as="geometry" />
        </mxCell>
        <mxCell id="-qCF9lznnPfWgLUcTn7B-96" style="edgeStyle=orthogonalEdgeStyle;rounded=0;orthogonalLoop=1;jettySize=auto;html=1;entryX=0;entryY=0.5;entryDx=0;entryDy=0;" edge="1" parent="-qCF9lznnPfWgLUcTn7B-81" source="-qCF9lznnPfWgLUcTn7B-73" target="-qCF9lznnPfWgLUcTn7B-74">
          <mxGeometry relative="1" as="geometry" />
        </mxCell>
        <mxCell id="-qCF9lznnPfWgLUcTn7B-94" value="Trip (Execution) Service" style="rounded=0;whiteSpace=wrap;html=1;dashed=1;" vertex="1" parent="-qCF9lznnPfWgLUcTn7B-88">
          <mxGeometry x="760" y="300" width="250" height="60" as="geometry" />
        </mxCell>
        <mxCell id="-qCF9lznnPfWgLUcTn7B-98" style="edgeStyle=orthogonalEdgeStyle;rounded=0;orthogonalLoop=1;jettySize=auto;html=1;entryX=0;entryY=0.5;entryDx=0;entryDy=0;" edge="1" parent="-qCF9lznnPfWgLUcTn7B-88" source="-qCF9lznnPfWgLUcTn7B-72" target="-qCF9lznnPfWgLUcTn7B-94">
          <mxGeometry relative="1" as="geometry">
            <Array as="points">
              <mxPoint x="600" y="90" />
              <mxPoint x="600" y="330" />
            </Array>
          </mxGeometry>
        </mxCell>
        <mxCell id="-qCF9lznnPfWgLUcTn7B-92" value="&lt;h1&gt;Clients&lt;/h1&gt;&lt;p&gt;The application will have the following clients:&lt;/p&gt;&lt;p&gt;- A mobile client, will be use by driver and rider mainly, and should offer them the possibility to mange and do anything the application support and allow them to do&lt;/p&gt;&lt;p&gt;- The Web client is for administrators. There are different types of administrators:&lt;/p&gt;&lt;p&gt;&lt;span style=&quot;white-space: pre;&quot;&gt;	&lt;/span&gt;* The fleet admin, whom role is to manage all the drivers and cars associated to his fleet. Moreover, he has the possibility to see money flow, and also has tools to make some statistics&lt;br&gt;&lt;/p&gt;&lt;p&gt;&amp;nbsp;&lt;span style=&quot;white-space: pre;&quot;&gt;	&lt;/span&gt;* The master admin, can do everything the fleet admin can do but is not restricted to a single fleet&lt;/p&gt;&lt;p&gt;&lt;br&gt;&lt;/p&gt;&lt;p&gt;We will have an Android and an Apple app, which will be deploy on google playstore and apple store respectively.&lt;/p&gt;&lt;p&gt;&lt;span style=&quot;background-color: initial;&quot;&gt;The Web application will be deploy on Vercel which is a trusted and tested cloud provider for deploying web applications.&amp;nbsp;&lt;/span&gt;&lt;br&gt;&lt;/p&gt;&lt;p&gt;&lt;br&gt;&lt;/p&gt;" style="text;html=1;strokeColor=none;fillColor=none;spacing=5;spacingTop=-20;whiteSpace=wrap;overflow=hidden;rounded=0;" vertex="1" parent="1">
          <mxGeometry x="-440" y="1280" width="190" height="590" as="geometry" />
        </mxCell>
        <mxCell id="-qCF9lznnPfWgLUcTn7B-93" value="&lt;h1&gt;Server&lt;/h1&gt;&lt;p&gt;Due to the fact that the application will potentially grow and the number of user and eventually features will increase the application backend has a microservice architecture.&amp;nbsp;&lt;/p&gt;&lt;p&gt;&lt;br&gt;&lt;/p&gt;&lt;p&gt;It has many different service, and some of them will be potentially be bought to speed up development time.&lt;/p&gt;&lt;p&gt;* The Customer service, is the service responsible for the management of every functionalities related to the riders.&lt;/p&gt;&lt;p&gt;&lt;br&gt;&lt;/p&gt;&lt;p&gt;* The Driver Service, is responsible for handling every request and related to driver needs and functionalities&amp;nbsp;&lt;/p&gt;&lt;p&gt;* The Trip Execution service handles everything related to the tracking, computing and updates of riders, drivers and trip.&lt;/p&gt;" style="text;html=1;strokeColor=none;fillColor=none;spacing=5;spacingTop=-20;whiteSpace=wrap;overflow=hidden;rounded=0;" vertex="1" parent="1">
          <mxGeometry x="320" y="1320" width="190" height="510" as="geometry" />
        </mxCell>
        <mxCell id="-qCF9lznnPfWgLUcTn7B-102" value="&lt;h1&gt;Findings and Questions&lt;/h1&gt;&lt;p&gt;* Fleet owners register as partners on EasyGO&lt;/p&gt;&lt;p&gt;* EasyGo has its own fleet of cars.&lt;/p&gt;&lt;p&gt;* A driver is either part of a registered fleet or part of EasyGo fleet&lt;/p&gt;&lt;p&gt;* Each Fleet has an administrator responsible for the driver and handles every manual task of the application.&lt;/p&gt;&lt;p&gt;&lt;br&gt;&lt;/p&gt;&lt;p&gt;Can a driver be registered to the platform without a Fleet?&lt;/p&gt;&lt;p&gt;&lt;br&gt;&lt;/p&gt;" style="text;html=1;strokeColor=none;fillColor=none;spacing=5;spacingTop=-20;whiteSpace=wrap;overflow=hidden;rounded=0;" vertex="1" parent="1">
          <mxGeometry x="851" y="-480" width="670" height="320" as="geometry" />
        </mxCell>
      </root>
    </mxGraphModel>
  </diagram>
</mxfile>
